<svg xmlns="http://www.w3.org/2000/svg" version="1.1" viewBox="-5.0 -10.0 110.0 135.0">
 <path d="m84.766 18.848h-19.48c-0.082031-8.3594-6.9062-15.145-15.285-15.145s-15.203 6.7852-15.285 15.152h-19.48c-3.2148 0-5.8164 2.6133-5.8164 5.8164v48.297c0 3.2148 2.6133 5.8164 5.8164 5.8164h23.398v5.4062l-9.4062 6.2773c-1.1719 0.78516-1.6836 2.2148-1.2773 3.5703 0.40625 1.3477 1.6328 2.2539 3.0391 2.2539h38.02c1.4062 0 2.6328-0.90625 3.0391-2.2539 0.40625-1.3477-0.10156-2.7852-1.2773-3.5703l-9.4062-6.2773v-5.4062h23.398c3.2148 0 5.8164-2.6133 5.8164-5.8164l0.003906-48.297c0-3.2109-2.6133-5.8242-5.8164-5.8242zm-58.703 10.957 22.246 10.613-2.6953 5.6445-22.246-10.613zm0.67188 10.074 18.93 9.0312c0.17188 0.082032 0.35547 0.12109 0.55078 0.12109 0.14453 0 0.28516-0.019531 0.42969-0.070312 0.31641-0.11328 0.58203-0.34766 0.72266-0.65234l1.3672-2.8555v17.48l-22-10.504zm24.543 5.5703 1.3672 2.8555c0.14453 0.30469 0.40625 0.53906 0.72266 0.65234 0.14453 0.050781 0.28516 0.070313 0.42969 0.070313 0.18359 0 0.37891-0.039063 0.55078-0.12109l18.93-9.0312v12.562l-22 10.492zm3.1094 0.61328-2.6953-5.6445 22.246-10.613 2.6953 5.6445zm-4.3867-7.6562-21.582-10.293 7.3672-3.5195c2.2461 5.6641 7.7656 9.6719 14.215 9.6719s11.969-4.0195 14.215-9.6719l7.3672 3.5195zm0-32.16c7.0195 0 12.734 5.7148 12.734 12.734s-5.7148 12.742-12.734 12.742-12.734-5.7148-12.734-12.734 5.7148-12.742 12.734-12.742zm-34.766 15.152h19.672c0.039062 0.24609 0.082031 0.48828 0.13281 0.72266l-10.121 4.8281h-0.011719c-0.26562 0.12109-0.48047 0.33594-0.60156 0.60156l-3.7852 7.9375c-0.30469 0.63281-0.03125 1.3984 0.60156 1.6953l3.0625 1.4609v14.57c0 0.48828 0.28516 0.9375 0.72266 1.1523l24.539 11.703c0.17188 0.082032 0.35547 0.12109 0.55078 0.12109 0.18359 0 0.37891-0.039062 0.55078-0.12109l24.547-11.684c0.4375-0.21484 0.72266-0.66406 0.72266-1.1523v-14.57l3.0625-1.4609c0.63281-0.30469 0.90625-1.0625 0.60156-1.6953l-3.7852-7.9375c-0.12109-0.26562-0.33594-0.48047-0.60156-0.60156h-0.011719l-10.121-4.8281c0.050781-0.24609 0.09375-0.48047 0.13281-0.72266h19.672c1.8047 0 3.2773 1.4688 3.2773 3.2773v45.539h-76.082v-45.562c0-1.8047 1.4688-3.2734 3.2734-3.2734zm44.152 64.539 9.9688 6.6523c0.24609 0.16406 0.33594 0.42969 0.25391 0.71484-0.082031 0.28516-0.31641 0.44922-0.60156 0.44922h-38.02c-0.29688 0-0.51953-0.16406-0.60156-0.44922-0.082031-0.28516 0.011719-0.55078 0.25391-0.71484l9.9688-6.6523c0.35547-0.23438 0.57031-0.63281 0.57031-1.0625v-6.0938h17.645v6.0938c-0.007813 0.42969 0.20703 0.82812 0.5625 1.0625zm25.379-9.6914h-69.531c-1.8047 0-3.2773-1.4688-3.2773-3.2773v-0.21484h76.07v0.21484c0.011718 1.8086-1.457 3.2773-3.2617 3.2773zm-39.797-48.652c0.4375 0.25391 0.91797 0.37891 1.3867 0.37891 0.48047 0 0.96094-0.12109 1.3867-0.37891l10.723-6.1953c0.86719-0.5 1.3867-1.4062 1.3867-2.4062 0-1.0117-0.51953-1.9062-1.3867-2.4062l-10.711-6.1992c-0.86719-0.5-1.9062-0.5-2.7852 0-0.86719 0.5-1.3867 1.4062-1.3867 2.4062v12.387c-0.011719 1.0039 0.51172 1.9141 1.3867 2.4141zm1.1523-14.797c0-0.10156 0.03125-0.15234 0.12109-0.20312 0.039062-0.019531 0.082031-0.039062 0.12109-0.039062 0.039063 0 0.070313 0.011718 0.12109 0.039062l10.723 6.1953c0.082031 0.050782 0.12109 0.10156 0.12109 0.20313 0 0.10156-0.03125 0.15234-0.12109 0.20312l-10.723 6.1953c-0.082031 0.050781-0.15234 0.050781-0.23438 0s-0.12109-0.10156-0.12109-0.20312l0.003906-12.391z"/>
</svg>